#!OML:ASF \\Waltz\H\Terrain\Patient Classification 1\Animal2\Wednesday\Animal2.ASF
:FULLY-SPECIFIED
:DEGREES
3880
root 16.6635 17.8283 0.74816 13.876 1.88995 -16.0275
lowerback 9.28157 -1.83516 1.35676
upperback -8.83681 -1.55006 5.79055
thorax -14.9722 -0.446107 6.10851
lowerneck 5.19494 15.2553 16.2824
upperneck -27.9387 16.7647 -33.9189
head -3.8421 9.96007 -14.5526
rclavicle -1.0635e-014 1.51076e-014
rhumerus -13.5378 -15.8372 8.18414
rradius 35.3578
rwrist 12.2565
rhand -14.0072 21.1945
rfingers 7.12502
rthumb 12.1221 -8.43437
lclavicle -1.0635e-014 1.51076e-014
lhumerus -18.4356 -1.76313 -22.1762
lradius 41.124
lwrist 18.2386
lhand -23.102 30.08
lfingers 7.12502
lthumb 3.34456 60.0335
rfemur -24.3788 -19.0426 3.55972
rtibia 60.9674
rfoot -8.64666 -12.7524
rtoes 6.77188
lfemur -36.94 36.2725 -5.86379
ltibia 43.1213
lfoot -14.4692 4.3514
ltoes -14.5029
3881
root 16.7309 17.6542 0.672148 13.8058 1.9934 -15.5953
lowerback 10.7161 -1.83099 0.745507
upperback -8.86067 -1.63967 5.38535
thorax -15.9051 -0.417347 6.1136
lowerneck 4.99101 15.079 16.5065
upperneck -28.1419 16.4754 -33.9291
head -3.91179 9.79363 -14.6443
rclavicle 3.22777e-014 -8.74653e-015
rhumerus -14.6481 -16.3198 7.14497
rradius 36.1098
rwrist 11.3829
rhand -15.6873 20.5939
rfingers 7.12502
rthumb 10.5018 -9.12378
lclavicle 3.22777e-014 -8.74653e-015
lhumerus -19.2736 -0.060045 -21.815
lradius 42.0262
lwrist 18.2441
lhand -23.5411 30.492
lfingers 7.12502
lthumb 2.92056 60.4517
rfemur -26.3612 -19.4976 3.9539
rtibia 63.8744
rfoot -10.4933 -13.2757
rtoes 5.3929
lfemur -38.4353 36.5003 -6.94737
ltibia 45.1557
lfoot -17.1508 4.29364
ltoes -15.1993
3882
root 16.794 17.4937 0.596377 13.9231 2.07815 -14.9755
lowerback 11.8984 -1.78457 -0.0802485
upperback -8.83864 -1.74718 5.00802
thorax -16.6179 -0.373859 6.25537
lowerneck 4.6764 14.8968 16.2439
upperneck -28.4461 16.093 -33.7816
head -4.09739 9.60454 -14.6186
rclavicle 2.82026e-014 5.80451e-014
rhumerus -15.7829 -17.1412 6.15074
rradius 36.9418
rwrist 10.4125
rhand -17.1485 19.8759
rfingers 7.12502
rthumb 9.09202 -9.90811
lclavicle 2.82026e-014 5.80451e-014
lhumerus -20.2533 1.85335 -21.2005
lradius 43.1418
lwrist 18.5574
lhand -24.2788 31.2411
lfingers 7.12502
lthumb 2.20812 61.2094
rfemur -28.5396 -20.0542 4.35951
rtibia 66.6617
rfoot -12.1564 -13.6994
rtoes 5.19198
lfemur -40.0534 36.4976 -8.38269
ltibia 47.0832
lfoot -18.9578 4.76008
ltoes -15.9282
3883
root 16.8513 17.3569 0.516901 14.2928 2.26965 -14.3128
lowerback 13.0092 -1.78741 -0.879376
upperback -8.95203 -1.95146 4.58618
thorax -17.4518 -0.36964 6.3624
lowerneck 4.44443 14.7465 15.9421
upperneck -28.809 15.7772 -33.463
head -4.32793 9.44152 -14.5273
rclavicle 3.31753e-014 -3.89618e-014
rhumerus -17.1556 -17.6862 5.00006
rradius 38.1054
rwrist 9.0293
rhand -18.7629 18.7868
rfingers 7.12502
rthumb 7.53398 -11.059
lclavicle 3.31753e-014 -3.89618e-014
lhumerus -21.2348 3.97382 -20.5722
lradius 44.2717
lwrist 18.8423
lhand -25.4949 32.1431
lfingers 7.12502
lthumb 1.03355 62.1203
rfemur -31.0389 -20.7507 5.0936
rtibia 69.3367
rfoot -13.4601 -14.1486
rtoes 6.85168
lfemur -42.2788 36.3719 -10.0467
ltibia 49.222
lfoot -19.7216 5.29185
ltoes -17.4716
3884
root 16.9011 17.2592 0.445083 14.8474 2.53833 -13.9917
lowerback 14.0529 -1.79572 -1.36513
upperback -9.20664 -2.1166 4.19332
thorax -18.4473 -0.36862 6.32199
lowerneck 4.33598 14.6046 16.0265
upperneck -29.1087 15.5419 -33.2787
head -4.47656 9.30302 -14.5388
rclavicle -1.28837e-014 1.19271e-014
rhumerus -18.9592 -17.7294 3.72963
rradius 39.5882
rwrist 7.26216
rhand -20.7661 17.6782
rfingers 7.12502
rthumb 5.60021 -12.2278
lclavicle -1.28837e-014 1.19271e-014
lhumerus -22.1339 6.09659 -19.9068
lradius 45.4561
lwrist 19.3213
lhand -27.1993 33.052
lfingers 7.12502
lthumb -0.612539 63.0309
rfemur -33.7627 -21.335 6.61419
rtibia 71.759
rfoot -14.8027 -14.5164
rtoes 8.24106
lfemur -44.9273 36.354 -11.3338
ltibia 51.5549
lfoot -20.2861 4.48264
ltoes -14.4878
3885
root 16.9345 17.1212 0.372105 15.3286 2.77383 -13.7986
lowerback 14.8712 -1.73957 -1.79428
upperback -9.28269 -2.18971 3.86613
thorax -19.0828 -0.343906 6.26656
lowerneck 4.44963 14.3823 15.8491
upperneck -29.8464 15.1026 -33.1453
head -4.87434 9.11718 -14.6488
rclavicle 4.5385e-014 6.36111e-015
rhumerus -20.9647 -17.9013 2.53658
rradius 41.0425
rwrist 5.34618
rhand -22.9221 17.0629
rfingers 7.12502
rthumb 3.51833 -12.8878
lclavicle 4.5385e-014 6.36111e-015
lhumerus -23.2473 8.21439 -18.9604
lradius 47.0341
lwrist 20.3008
lhand -28.9779 34.5404
lfingers 7.12502
lthumb -2.33034 64.5074
rfemur -36.7 -21.8448 8.38311
rtibia 74.2636
rfoot -16.1735 -14.571
rtoes 8.24968
lfemur -47.6698 36.4784 -12.31
ltibia 54.177
lfoot -20.9062 3.16545
ltoes -10.3468
